# xmcd
#
# Track frame offsets:
#	150
#	1432
#	82900
#	175128
#	226226
#	240384
#	246638
#	248910
#	249491
#	252401
#	255299
#	255740
#	257216
#	291631
#	292616
#	300254
#	301385
#	302887
#	305162
#	309005
#	312653
#
# Disc length: 4181 seconds
# Revision: 0
# Processed by: cddbd v1.5.2PL0 Copyright (c) Steve Scherf et al.
# Submitted via: dBpowerAMP V12.0
#
DISCID=1b105315
DTITLE=Hale Dwoskin - The Inner Circle Retreat 03 CD 15
DYEAR=2007
DGENRE=Speech
TTITLE0=Intro Music
TTITLE1=Confusion - Worrying about Others - Be Present with What Is - Patterns
TTITLE2=Relationship Pattern
TTITLE3=Releasing at Home Pattern
TTITLE4=Hypnotism
TTITLE5=The Concept of Life and Death
TTITLE6=Instructions pt 1 - Welcome Whatever Comes Up
TTITLE7=Instructions pt 2
TTITLE8=Instructions pt 3
TTITLE9=Instructions pt 4
TTITLE10=Instructions pt 5
TTITLE11=Instructions pt 6
TTITLE12=Life Pattern
TTITLE13=Sharing
TTITLE14=How to Introduce the Method in Your Company pt 1
TTITLE15=How to Introduce the Method in Your Company pt 2
TTITLE16=Sharing
TTITLE17=Sharing
TTITLE18=Sharing
TTITLE19=Summary
TTITLE20=Concluding Music
EXTD=
EXTT0=
EXTT1=
EXTT2=
EXTT3=
EXTT4=
EXTT5=
EXTT6=
EXTT7=
EXTT8=
EXTT9=
EXTT10=
EXTT11=
EXTT12=
EXTT13=
EXTT14=
EXTT15=
EXTT16=
EXTT17=
EXTT18=
EXTT19=
EXTT20=
PLAYORDER=
